<svg width="18" height="18" viewBox="0 0 18 18" fill="none" xmlns="http://www.w3.org/2000/svg">
<path fill-rule="evenodd" clip-rule="evenodd" d="M7.35329 1.28835C7.83834 0.956571 8.4123 0.779053 8.99996 0.779053C9.58762 0.779053 10.1616 0.956571 10.6466 1.28835L16.0633 4.99502C16.4547 5.26272 16.7749 5.6218 16.9962 6.04116C17.2175 6.46052 17.3332 6.92751 17.3333 7.40168V14.4167C17.3333 15.1902 17.026 15.9321 16.479 16.4791C15.932 17.0261 15.1902 17.3333 14.4166 17.3333H3.58329C2.80974 17.3333 2.06788 17.0261 1.5209 16.4791C0.973917 15.9321 0.666626 15.1902 0.666626 14.4167V7.40168C0.66674 6.92751 0.782458 6.46052 1.00376 6.04116C1.22505 5.6218 1.54525 5.26272 1.93663 4.99502L7.35329 1.28835ZM6.91663 13.5833C6.80612 13.5833 6.70014 13.6272 6.622 13.7054C6.54386 13.7835 6.49996 13.8895 6.49996 14C6.49996 14.1105 6.54386 14.2165 6.622 14.2946C6.70014 14.3728 6.80612 14.4167 6.91663 14.4167H11.0833C11.1938 14.4167 11.2998 14.3728 11.3779 14.2946C11.4561 14.2165 11.5 14.1105 11.5 14C11.5 13.8895 11.4561 13.7835 11.3779 13.7054C11.2998 13.6272 11.1938 13.5833 11.0833 13.5833H6.91663Z" fill="#6366F1"/>
</svg>
