<svg width="10" height="16" viewBox="0 0 10 16" fill="none" xmlns="http://www.w3.org/2000/svg">
<path d="M3.81235 7.99976L9.32075 2.49112C9.47243 2.33981 9.55587 2.1375 9.55587 1.92178C9.55587 1.70594 9.47243 1.50374 9.32075 1.35219L8.83808 0.869752C8.68664 0.717958 8.48421 0.634399 8.26849 0.634399C8.05277 0.634399 7.85058 0.717958 7.69902 0.869752L1.14039 7.42826C0.988241 7.5803 0.904922 7.78345 0.905521 7.9994C0.904922 8.21632 0.988122 8.41923 1.14039 8.57139L7.69292 15.1236C7.84447 15.2753 8.04667 15.3589 8.26251 15.3589C8.47823 15.3589 8.68042 15.2753 8.83209 15.1236L9.31465 14.6411C9.62865 14.3271 9.62865 13.8159 9.31465 13.5021L3.81235 7.99976Z" fill="white"/>
</svg>
