<svg width="13" height="21" viewBox="0 0 13 21" fill="none" xmlns="http://www.w3.org/2000/svg">
<path d="M4.47719 10.5044L12.3332 2.64805C12.5496 2.43224 12.6686 2.14371 12.6686 1.83605C12.6686 1.52822 12.5496 1.23985 12.3332 1.02371L11.6449 0.335658C11.4289 0.119171 11.1402 0 10.8325 0C10.5249 0 10.2365 0.119171 10.0203 0.335658L0.666462 9.68936C0.449462 9.90619 0.330633 10.1959 0.331487 10.5039C0.330633 10.8133 0.449291 11.1027 0.666462 11.3197L10.0116 20.6643C10.2278 20.8808 10.5161 21 10.824 21C11.1316 21 11.42 20.8808 11.6363 20.6643L12.3245 19.9763C12.7724 19.5285 12.7724 18.7994 12.3245 18.3518L4.47719 10.5044Z" fill="white"/>
</svg>
