<svg width="17" height="17" viewBox="0 0 17 17" fill="none" xmlns="http://www.w3.org/2000/svg">
<path d="M6.25004 13.0652C6.13953 13.0652 6.03355 13.1091 5.95541 13.1872C5.87727 13.2654 5.83337 13.3713 5.83337 13.4819C5.83337 13.5924 5.87727 13.6983 5.95541 13.7765C6.03355 13.8546 6.13953 13.8985 6.25004 13.8985H10.4167C10.5272 13.8985 10.6332 13.8546 10.7113 13.7765C10.7895 13.6983 10.8334 13.5924 10.8334 13.4819C10.8334 13.3713 10.7895 13.2654 10.7113 13.1872C10.6332 13.1091 10.5272 13.0652 10.4167 13.0652H6.25004Z" fill="white" fill-opacity="0.75"/>
<path fill-rule="evenodd" clip-rule="evenodd" d="M10.1408 0.627587C9.62604 0.221098 8.98926 0 8.33333 0C7.67741 0 7.04062 0.221098 6.52583 0.627587L1.10917 4.90425C0.763403 5.17727 0.483981 5.52508 0.291879 5.92155C0.0997774 6.31802 -1.30582e-05 6.75286 1.28165e-09 7.19342V13.8984C1.28165e-09 14.672 0.307291 15.4138 0.854272 15.9608C1.40125 16.5078 2.14312 16.8151 2.91667 16.8151H13.75C14.5235 16.8151 15.2654 16.5078 15.8124 15.9608C16.3594 15.4138 16.6667 14.672 16.6667 13.8984V7.19342C16.6667 6.75286 16.5669 6.31802 16.3748 5.92155C16.1827 5.52508 15.9033 5.17727 15.5575 4.90425L10.1408 0.627587ZM7.0425 1.28175C7.41017 0.991522 7.86492 0.833665 8.33333 0.833665C8.80175 0.833665 9.2565 0.991522 9.62417 1.28175L15.0408 5.55842C15.2878 5.7534 15.4875 6.0018 15.6247 6.28497C15.762 6.56815 15.8333 6.87874 15.8333 7.19342V13.8984C15.8333 14.451 15.6138 14.9809 15.2231 15.3716C14.8324 15.7623 14.3025 15.9818 13.75 15.9818H2.91667C2.36413 15.9818 1.83423 15.7623 1.44353 15.3716C1.05283 14.9809 0.833333 14.451 0.833333 13.8984V7.19342C0.833271 6.8788 0.904466 6.56826 1.04158 6.28509C1.17869 6.00192 1.37815 5.75348 1.625 5.55842L7.0425 1.28175Z" fill="white" fill-opacity="0.75"/>
</svg>
