<svg width="17" height="19" viewBox="0 0 17 19" fill="none" xmlns="http://www.w3.org/2000/svg">
<path d="M17.1529 14.1948C17.0487 13.11 16.0803 12.258 14.9526 12.258C14.9207 12.2582 14.8891 12.2521 14.8597 12.24C14.8302 12.2279 14.8035 12.2101 14.7809 12.1875C14.7584 12.165 14.7406 12.1383 14.7285 12.1088C14.7164 12.0793 14.7103 12.0478 14.7104 12.0159V8.40592C14.7104 5.72447 12.9943 3.38626 10.6316 2.51288C10.6592 2.37495 10.6745 2.23401 10.6745 2.09302C10.6745 0.937761 9.73679 0 8.58143 0C7.42606 0 6.48835 0.937761 6.48835 2.09307C6.48835 2.23099 6.50366 2.36886 6.52817 2.50064C5.7161 2.78872 4.96529 3.24532 4.32481 3.86435C3.1174 5.02887 2.45241 6.59483 2.45241 8.27419V12.016C2.45241 12.1478 2.34514 12.2581 2.21029 12.2581C1.07949 12.2581 0.114148 13.11 0.0099524 14.1949C-0.0482866 14.7986 0.150944 15.3992 0.558515 15.8466C0.963015 16.291 1.54223 16.5484 2.14591 16.5484H5.84174C5.99496 17.9244 7.16563 19 8.58143 19C9.99723 19 11.1679 17.9244 11.3211 16.5484H15.0169C15.6207 16.5484 16.1998 16.291 16.6043 15.8466C17.0088 15.3992 17.2111 14.7985 17.1529 14.1948ZM8.58143 1.22578C9.05947 1.22578 9.44867 1.61498 9.44867 2.09302C9.44867 2.13284 9.44253 2.16963 9.43639 2.20945C9.22799 2.17879 9.01653 2.15735 8.80507 2.15121C8.44039 2.13893 8.08184 2.16349 7.72637 2.21252C7.72023 2.1727 7.71409 2.13591 7.71409 2.09609C7.71419 1.61498 8.10339 1.22578 8.58143 1.22578ZM8.58143 17.7742C7.8429 17.7742 7.22387 17.247 7.0798 16.5484H10.083C9.93904 17.2471 9.32001 17.7742 8.58143 17.7742ZM15.6972 15.0222C15.5195 15.2153 15.2805 15.3225 15.0169 15.3225H2.14596C1.8824 15.3225 1.64341 15.2153 1.46562 15.0222C1.28788 14.8292 1.20513 14.5748 1.23272 14.3113C1.2756 13.8486 1.70774 13.4839 2.21336 13.4839C3.02242 13.4839 3.68126 12.825 3.68126 12.016V8.27419C3.68126 6.93193 4.21447 5.67856 5.17982 4.74694C6.09916 3.85519 7.30048 3.37095 8.58143 3.37095C8.64274 3.37095 8.70093 3.37095 8.76224 3.37403C11.364 3.46594 13.4847 5.72452 13.4847 8.40597V12.016C13.4847 12.825 14.1435 13.4839 14.9526 13.4839C15.4582 13.4839 15.8903 13.8486 15.9332 14.3113C15.9577 14.5748 15.875 14.8261 15.6972 15.0222ZM0.644338 7.35485C0.926271 7.35485 1.18062 7.15874 1.24193 6.87374C1.53916 5.52841 2.21029 4.30263 3.19094 3.32812C3.42999 3.08907 3.42999 2.69988 3.19094 2.46088C2.95189 2.22183 2.5627 2.22183 2.3237 2.46088C1.1776 3.60079 0.38999 5.03809 0.0437291 6.6132C-0.0298118 6.94416 0.17858 7.27205 0.509539 7.34257C0.558566 7.35178 0.601452 7.35485 0.644338 7.35485ZM16.5185 7.35485C16.5614 7.35485 16.6074 7.34871 16.6503 7.33955C16.9813 7.26601 17.1896 6.94114 17.1161 6.61018C16.7698 5.03502 15.9822 3.60084 14.8361 2.45776C14.597 2.21871 14.2078 2.21871 13.9688 2.45776C13.7299 2.69681 13.7298 3.086 13.9688 3.325C14.9464 4.2995 15.6206 5.52534 15.9179 6.87062C15.9822 7.15869 16.2366 7.35485 16.5185 7.35485Z" fill="#B6B7B8"/>
</svg>
