<svg width="23" height="19" viewBox="0 0 23 19" fill="none" xmlns="http://www.w3.org/2000/svg">
<path d="M22.9142 1.02404C22.8733 0.974428 22.8205 0.936008 22.7607 0.912368C22.7009 0.888728 22.636 0.880641 22.5723 0.888863C22.5432 0.890415 22.5144 0.895428 22.4865 0.903797L0.282596 6.94291C0.20314 6.96457 0.132764 7.01123 0.0818722 7.07598C0.0309806 7.14074 0.00227455 7.22015 -2.25711e-06 7.30247C-0.00421443 7.47134 0.103005 7.62336 0.26345 7.67621L8.38797 10.3383L7.66118 16.1519C7.65183 16.2268 7.66482 16.3027 7.69852 16.3703C7.73222 16.4378 7.78513 16.4939 7.85059 16.5314C7.91605 16.569 7.99115 16.5864 8.06646 16.5814C8.14176 16.5764 8.21392 16.5493 8.27386 16.5034L11.2473 14.2265L13.8538 17.9505C13.8891 18.0009 13.936 18.0422 13.9906 18.0706C14.0452 18.0991 14.1059 18.114 14.1675 18.114L14.1935 18.1132C14.2594 18.1087 14.3229 18.0872 14.378 18.0509C14.4331 18.0145 14.4779 17.9645 14.5079 17.9057L22.9563 1.43989C22.9908 1.37405 23.0051 1.29956 22.9976 1.22565C22.9901 1.15173 22.9611 1.08164 22.9142 1.02404ZM20.2548 2.30454L8.75404 9.6521L1.71703 7.34651L20.2548 2.30454ZM8.53463 15.3393L9.06383 11.1068L10.8081 13.5985L8.53463 15.3393ZM14.1177 16.9909L9.35026 10.1802L21.6421 2.32713L14.1177 16.9909Z" fill="white" fill-opacity="0.65"/>
</svg>
