<svg width="16" height="18" viewBox="0 0 16 18" fill="none" xmlns="http://www.w3.org/2000/svg">
<path d="M7.56167 9.53247C4.99523 9.53247 2.90647 7.39388 2.90647 4.76624C2.90647 2.13859 4.99523 0 7.56167 0C10.1281 0 12.2169 2.13859 12.2169 4.76624C12.2169 7.39388 10.1281 9.53247 7.56167 9.53247ZM7.56167 1.24337C5.6672 1.24337 4.12087 2.82659 4.12087 4.76624C4.12087 6.70589 5.6672 8.28911 7.56167 8.28911C9.45613 8.28911 11.0025 6.70589 11.0025 4.76624C11.0025 2.82659 9.45613 1.24337 7.56167 1.24337ZM14.5161 17.8216C14.1842 17.8216 13.9089 17.5398 13.9089 17.1999C13.9089 14.3402 11.0591 12.0192 7.56167 12.0192C4.06419 12.0192 1.2144 14.3402 1.2144 17.1999C1.2144 17.5398 0.939136 17.8216 0.6072 17.8216C0.275264 17.8216 0 17.5398 0 17.1999C0 13.6604 3.39223 10.7758 7.56167 10.7758C11.7311 10.7758 15.1233 13.6604 15.1233 17.1999C15.1233 17.5398 14.8481 17.8216 14.5161 17.8216Z" fill="white" fill-opacity="0.65"/>
</svg>
