<svg xmlns="http://www.w3.org/2000/svg" version="1.1" xmlns:xlink="http://www.w3.org/1999/xlink" width="512" height="512" x="0" y="0" viewBox="0 0 24 24" style="enable-background:new 0 0 512 512" xml:space="preserve" class=""><g><g data-name="Layer 2"><path d="M12 22.607a1.747 1.747 0 0 1-.85-.221l-3.37-1.873a10.756 10.756 0 0 1-5.53-9.397V5.92a1.747 1.747 0 0 1 1.568-1.738 17.319 17.319 0 0 0 3.932-.889 17.295 17.295 0 0 0 3.335-1.598h.001a1.754 1.754 0 0 1 1.828 0 17.313 17.313 0 0 0 3.336 1.598 17.319 17.319 0 0 0 3.932.889A1.747 1.747 0 0 1 21.75 5.92v5.196a10.756 10.756 0 0 1-5.53 9.397l-3.37 1.873a1.747 1.747 0 0 1-.85.221zm-.125-19.635A18.84 18.84 0 0 1 8.25 4.707a18.758 18.758 0 0 1-4.273.966.248.248 0 0 0-.227.247v5.196a9.255 9.255 0 0 0 4.758 8.086l3.37 1.872a.245.245 0 0 0 .244 0l3.37-1.872a9.255 9.255 0 0 0 4.758-8.086V5.92a.248.248 0 0 0-.227-.247 18.758 18.758 0 0 1-4.273-.966 18.84 18.84 0 0 1-3.625-1.735.242.242 0 0 0-.25 0z" fill="#000000" opacity="1" data-original="#000000" class=""></path><path d="M14.5 17.25h-5A2.252 2.252 0 0 1 7.25 15v-3A2.252 2.252 0 0 1 9.5 9.75h5A2.252 2.252 0 0 1 16.75 12v3a2.252 2.252 0 0 1-2.25 2.25zm-5-6a.75.75 0 0 0-.75.75v3a.75.75 0 0 0 .75.75h5a.75.75 0 0 0 .75-.75v-3a.75.75 0 0 0-.75-.75z" fill="#000000" opacity="1" data-original="#000000" class=""></path><path d="M14 11.25h-4a.75.75 0 0 1-.75-.75v-2a2.75 2.75 0 0 1 5.5 0v2a.75.75 0 0 1-.75.75zm-3.25-1.5h2.5V8.5a1.25 1.25 0 0 0-2.5 0z" fill="#000000" opacity="1" data-original="#000000" class=""></path></g></g></svg>