<svg width="21" height="21" viewBox="0 0 21 21" fill="none" xmlns="http://www.w3.org/2000/svg">
<path d="M2.72994 6.46182C2.81044 6.50789 2.90593 6.52013 2.99544 6.49585C3.08495 6.47157 3.16116 6.41275 3.20734 6.33232C3.82489 5.2498 4.67593 4.3185 5.69856 3.60615C6.7212 2.8938 7.88973 2.4183 9.11919 2.21422C9.20892 2.19698 9.28834 2.14533 9.3405 2.07031C9.39266 1.9953 9.41342 1.90286 9.39834 1.81274C9.38326 1.72263 9.33354 1.64198 9.2598 1.58803C9.18606 1.53409 9.09414 1.51111 9.00369 1.52402C7.67174 1.74485 6.40577 2.25986 5.29792 3.03157C4.19006 3.80328 3.26819 4.81227 2.59939 5.98512C2.55363 6.06568 2.54167 6.16109 2.56614 6.25045C2.59061 6.33981 2.64952 6.41582 2.72994 6.46182Z" fill="white" fill-opacity="0.65"/>
<path d="M19.9938 14.98C20.8541 13.1649 21.1723 11.1401 20.9101 9.14865V9.13675C20.2269 3.90985 15.7728 0 10.5014 0C5.23005 0 0.775954 3.9095 0.0927543 9.13675V9.14865C0.0332543 9.59665 0.00175426 10.0482 4.25984e-06 10.5C-0.00139574 12.0495 0.342304 13.58 1.00625 14.98C1.00625 14.9825 1.00835 14.9853 1.00975 14.9881C1.85962 16.7862 3.20286 18.3059 4.88302 19.3702C6.56318 20.4344 8.51113 20.9995 10.5 20.9995C12.4889 20.9995 14.4368 20.4344 16.117 19.3702C17.7972 18.3059 19.1404 16.7862 19.9903 14.9881L19.9938 14.98ZM0.700004 10.5C0.700004 10.4454 0.703154 10.3919 0.704204 10.3376C2.21725 12.1037 6.02211 13.3 10.5 13.3C14.9779 13.3 18.7828 12.1037 20.2958 10.3376C20.2958 10.3919 20.3 10.4454 20.3 10.5C20.3 10.7947 20.2846 11.0859 20.2591 11.375C19.8006 13.6336 15.525 15.4 10.5 15.4C5.47505 15.4 1.19945 13.6336 0.740954 11.375C0.714433 11.0841 0.70077 10.7921 0.700004 10.5ZM10.5 0.7C12.6545 0.702964 14.7483 1.41468 16.4583 2.72537C18.1683 4.03607 19.3996 5.87294 19.9623 7.9527C19.5544 8.56602 19.0082 9.07495 18.3677 9.43845C18.3269 9.46164 18.2913 9.49277 18.2628 9.53C18.2343 9.56723 18.2136 9.6098 18.2019 9.65518C18.1902 9.70057 18.1877 9.74784 18.1946 9.7942C18.2015 9.84056 18.2177 9.88506 18.2421 9.92506C18.2665 9.96506 18.2988 9.99975 18.3368 10.0271C18.3749 10.0544 18.4181 10.0738 18.4638 10.0841C18.5096 10.0944 18.5569 10.0954 18.603 10.087C18.6491 10.0787 18.6931 10.0612 18.7324 10.0356C19.2654 9.72015 19.7469 9.32483 20.16 8.8634C20.1758 8.95685 20.1905 9.04995 20.2034 9.1434C19.5353 11.0873 15.3059 12.6 10.5 12.6C5.69415 12.6 1.46475 11.0873 0.795904 9.14445C0.808854 9.051 0.823204 8.9579 0.838954 8.86445C1.25271 9.32526 1.73452 9.72007 2.26765 10.0352C2.30688 10.0609 2.35086 10.0784 2.39699 10.0867C2.44311 10.095 2.49044 10.094 2.53616 10.0837C2.58189 10.0734 2.62507 10.054 2.66316 10.0267C2.70126 9.9994 2.73347 9.96471 2.7579 9.92471C2.78233 9.88471 2.79848 9.84021 2.80539 9.79385C2.8123 9.74749 2.80982 9.70022 2.79811 9.65484C2.7864 9.60945 2.7657 9.56688 2.73722 9.52965C2.70875 9.49242 2.67309 9.46129 2.63235 9.4381C1.99121 9.07567 1.44482 8.56682 1.03775 7.95305C1.60033 5.8732 2.83159 4.03621 4.54161 2.72544C6.25163 1.41467 8.34541 0.702926 10.5 0.7ZM10.5 20.3C8.85301 20.299 7.23281 19.883 5.78912 19.0903C4.34543 18.2976 3.1248 17.1539 2.24 15.7647C2.29075 15.7906 2.3401 15.8172 2.3919 15.8431C2.47508 15.8844 2.57123 15.8909 2.65922 15.8613C2.74721 15.8316 2.81982 15.7682 2.86108 15.6851C2.90234 15.6019 2.90887 15.5057 2.87924 15.4178C2.8496 15.3298 2.78623 15.2572 2.70305 15.2159C2.31699 15.0263 1.94441 14.8105 1.58795 14.5698C1.39825 14.1568 1.23795 13.7309 1.10775 13.2955C2.83255 14.9748 6.3924 16.1 10.5 16.1C14.6076 16.1 18.1675 14.9748 19.8916 13.2955C19.7614 13.7309 19.601 14.1567 19.4114 14.5698C19.0549 14.8105 18.6823 15.0263 18.2963 15.2159C18.2131 15.2572 18.1497 15.3298 18.1201 15.4178C18.0904 15.5057 18.097 15.6019 18.1382 15.6851C18.1795 15.7682 18.2521 15.8316 18.3401 15.8613C18.4281 15.8909 18.5242 15.8844 18.6074 15.8431C18.6596 15.8172 18.7086 15.7906 18.7593 15.7647C17.8746 17.1538 16.6541 18.2974 15.2105 19.0901C13.7669 19.8828 12.1469 20.2989 10.5 20.3Z" fill="white" fill-opacity="0.65"/>
<path d="M17.0299 15.7573C16.4708 15.9602 15.9 16.129 15.3205 16.2631C15.2301 16.2842 15.1518 16.3403 15.1027 16.4191C15.0537 16.498 15.038 16.593 15.0591 16.6834C15.0801 16.7739 15.1362 16.8522 15.2151 16.9012C15.2939 16.9503 15.389 16.966 15.4794 16.9449C16.0864 16.8046 16.6844 16.6276 17.27 16.415C17.3549 16.3815 17.4235 16.3162 17.4609 16.2329C17.4984 16.1496 17.5018 16.055 17.4705 15.9693C17.4391 15.8835 17.3755 15.8134 17.2932 15.7739C17.2109 15.7343 17.1164 15.7282 17.0299 15.7573ZM9.46535 16.7758C8.77427 16.7475 8.08506 16.6843 7.40035 16.5865C7.30845 16.573 7.21497 16.5966 7.14047 16.6521C7.06598 16.7076 7.01656 16.7903 7.0031 16.8822C6.98964 16.9741 7.01324 17.0676 7.0687 17.1421C7.12417 17.2166 7.20695 17.266 7.29885 17.2795C7.96385 17.3764 8.6838 17.4422 9.43385 17.4751H9.44995C9.54278 17.4771 9.63259 17.4422 9.69964 17.378C9.76669 17.3137 9.80548 17.2255 9.80748 17.1327C9.80947 17.0398 9.77451 16.95 9.71028 16.883C9.64606 16.8159 9.55783 16.7771 9.465 16.7751L9.46535 16.7758ZM5.6794 16.2631C5.09995 16.129 4.52911 15.9602 3.97 15.7573C3.92655 15.7402 3.88011 15.732 3.83342 15.7331C3.78673 15.7342 3.74074 15.7446 3.69815 15.7638C3.65555 15.7829 3.61722 15.8104 3.58542 15.8446C3.55361 15.8788 3.52897 15.919 3.51295 15.9629C3.49692 16.0068 3.48984 16.0534 3.49212 16.1C3.49439 16.1467 3.50598 16.1924 3.5262 16.2345C3.54642 16.2766 3.57485 16.3142 3.60984 16.3452C3.64482 16.3761 3.68565 16.3997 3.7299 16.4146C4.31552 16.6274 4.91348 16.8044 5.5205 16.9449C5.61091 16.966 5.70599 16.9503 5.78482 16.9012C5.86366 16.8522 5.91978 16.7739 5.94085 16.6834C5.96192 16.593 5.94622 16.498 5.89718 16.4191C5.84815 16.3403 5.76981 16.2842 5.6794 16.2631ZM13.5992 16.5865C12.9146 16.6845 12.2255 16.7475 11.5342 16.7758C11.4882 16.7768 11.4429 16.7869 11.4008 16.8054C11.3587 16.8239 11.3207 16.8505 11.2889 16.8837C11.2571 16.9169 11.2322 16.956 11.2155 16.9989C11.1988 17.0417 11.1907 17.0874 11.1917 17.1334C11.1927 17.1793 11.2027 17.2246 11.2212 17.2667C11.2398 17.3088 11.2664 17.3468 11.2996 17.3786C11.3328 17.4105 11.3719 17.4354 11.4147 17.4521C11.4576 17.4688 11.5033 17.4768 11.5493 17.4758H11.565C12.3154 17.4429 13.035 17.3771 13.7 17.2802C13.7919 17.2667 13.8747 17.2173 13.9302 17.1428C13.9856 17.0683 14.0092 16.9748 13.9958 16.8829C13.9823 16.791 13.9329 16.7083 13.8584 16.6528C13.7839 16.5973 13.6904 16.5737 13.5985 16.5872L13.5992 16.5865ZM5.6857 10.6365C5.10619 10.4935 4.53912 10.3041 3.98995 10.0702C3.90525 10.0359 3.81052 10.0362 3.72599 10.0708C3.64146 10.1055 3.57383 10.1718 3.53755 10.2557C3.50127 10.3395 3.49921 10.4342 3.53182 10.5196C3.56442 10.6049 3.62911 10.6741 3.71205 10.7124C4.296 10.9614 4.89901 11.1631 5.51525 11.3155C5.55984 11.3268 5.6062 11.3291 5.6517 11.3225C5.6972 11.3158 5.74094 11.3003 5.78043 11.2767C5.81992 11.2531 5.85438 11.222 5.88184 11.1851C5.90931 11.1483 5.92924 11.1063 5.9405 11.0617C5.95176 11.0172 5.95413 10.9708 5.94747 10.9253C5.94082 10.8798 5.92526 10.8361 5.9017 10.7966C5.87814 10.7571 5.84703 10.7226 5.81014 10.6951C5.77326 10.6677 5.73133 10.6478 5.68675 10.6365H5.6857ZM11.55 11.8755H11.565C12.2806 11.846 12.9941 11.7782 13.7025 11.6725C13.7943 11.6586 13.8768 11.6087 13.9318 11.534C13.9869 11.4592 14.01 11.3656 13.9961 11.2738C13.9822 11.182 13.9324 11.0995 13.8576 11.0445C13.7828 10.9894 13.6893 10.9663 13.5975 10.9802C12.9139 11.082 12.2255 11.1475 11.5349 11.1762C11.4889 11.1771 11.4436 11.1871 11.4015 11.2056C11.3594 11.224 11.3213 11.2506 11.2895 11.2838C11.2252 11.3508 11.1902 11.4405 11.1921 11.5334C11.194 11.6262 11.2327 11.7145 11.2997 11.7788C11.3666 11.843 11.4564 11.8781 11.5493 11.8762L11.55 11.8755ZM15.4 11.326C15.429 11.326 15.4577 11.3225 15.4861 11.3155C16.1025 11.1631 16.7058 10.9615 17.29 10.7124C17.3729 10.6741 17.4376 10.6049 17.4702 10.5196C17.5028 10.4342 17.5007 10.3395 17.4645 10.2557C17.4282 10.1718 17.3605 10.1055 17.276 10.0708C17.1915 10.0362 17.0968 10.0359 17.0121 10.0702C16.4625 10.3041 15.8951 10.4935 15.3153 10.6365C15.2324 10.6572 15.1601 10.7075 15.1118 10.7779C15.0635 10.8483 15.0425 10.9339 15.0529 11.0187C15.0634 11.1034 15.1044 11.1814 15.1683 11.238C15.2322 11.2946 15.3146 11.3259 15.4 11.326ZM7.0038 11.2738C6.99695 11.3193 6.99911 11.3657 7.01018 11.4103C7.02124 11.4549 7.04099 11.4969 7.06829 11.5339C7.09559 11.5709 7.12991 11.6021 7.16929 11.6258C7.20867 11.6496 7.25234 11.6653 7.2978 11.6721C8.0062 11.7778 8.7195 11.8457 9.43525 11.8751H9.44995C9.54278 11.877 9.63256 11.842 9.69954 11.7777C9.76652 11.7134 9.80522 11.6251 9.80713 11.5323C9.80903 11.4395 9.77398 11.3497 9.70969 11.2827C9.64539 11.2157 9.55713 11.177 9.4643 11.1751C8.77379 11.1466 8.08529 11.0811 7.40175 10.9791C7.35627 10.9723 7.30989 10.9746 7.26527 10.9857C7.22065 10.9968 7.17866 11.0167 7.1417 11.044C7.10475 11.0714 7.07355 11.1058 7.04988 11.1452C7.02622 11.1846 7.01056 11.2284 7.0038 11.2738Z" fill="white" fill-opacity="0.65"/>
<path d="M10.5 2.0999C10.6933 2.0999 10.85 1.9432 10.85 1.7499C10.85 1.5566 10.6933 1.3999 10.5 1.3999C10.3067 1.3999 10.15 1.5566 10.15 1.7499C10.15 1.9432 10.3067 2.0999 10.5 2.0999Z" fill="white" fill-opacity="0.65"/>
</svg>
